grf
version=1
nRows=20
nColumns=19
inDegrees=yes
endheader
time	ground_force_1_vx	ground_force_1_vy	ground_force_1_vz	ground_force_1_px	ground_force_1_py	ground_force_1_pz	ground_moment_1_mx	ground_moment_1_my	ground_moment_1_mz	ground_force_2_vx	ground_force_2_vy	ground_force_2_vz	ground_force_2_px	ground_force_2_py	ground_force_2_pz	ground_moment_2_mx	ground_moment_2_my	ground_moment_2_mz
0.000000	53.460148	1620.869385	-491.374603	0.137741	0.000000	-0.747181	0.000000	12.636788	0.000000	-69.890785	1154.318359	395.687469	0.247111	0.000000	-1.598468	0.000000	-16.451269	-0.000000
0.001000	55.803848	1614.159546	-491.254791	0.136910	0.000000	-0.745310	0.000000	12.634203	0.000000	-69.367882	1143.176392	395.082306	0.248493	0.000000	-1.600594	0.000000	-15.885386	-0.000000
0.002000	54.506512	1618.607544	-490.210266	0.138207	0.000000	-0.746512	0.000000	12.486657	0.000000	-68.844284	1149.856934	395.444916	0.247237	0.000000	-1.599171	0.000000	-16.230777	-0.000000
0.003000	55.925343	1619.088013	-489.928406	0.138422	0.000000	-0.746377	0.000000	11.960265	0.000000	-68.402542	1156.238281	395.726135	0.248451	0.000000	-1.599879	0.000000	-15.831048	-0.000000
0.004000	55.723366	1626.127930	-489.484985	0.138233	0.000000	-0.748338	0.000000	12.146883	0.000000	-66.030960	1150.490723	395.042480	0.247062	0.000000	-1.599200	0.000000	-16.470379	-0.000000
0.005000	56.735947	1621.486572	-488.842102	0.138454	0.000000	-0.747056	0.000000	11.746600	0.000000	-67.476830	1137.254639	394.198486	0.248104	0.000000	-1.598951	0.000000	-15.919076	-0.000000
0.006000	57.585651	1620.191528	-488.038086	0.138691	0.000000	-0.747251	0.000000	11.487826	0.000000	-66.672592	1147.618896	395.524902	0.247320	0.000000	-1.598655	0.000000	-16.093273	-0.000000
0.007000	57.019943	1617.948242	-486.914856	0.138661	0.000000	-0.746544	0.000000	11.668488	0.000000	-65.546158	1151.289307	395.645081	0.247698	0.000000	-1.599202	0.000000	-15.873746	-0.000000
0.008000	56.895027	1623.739624	-485.418457	0.138283	0.000000	-0.746642	0.000000	11.694218	0.000000	-64.942360	1146.026611	395.203125	0.246757	0.000000	-1.597943	0.000000	-16.146339	-0.000000
0.009000	57.746254	1615.686646	-486.310028	0.139097	0.000000	-0.746562	0.000000	11.334147	0.000000	-65.143349	1149.698975	395.926727	0.248213	0.000000	-1.599632	0.000000	-15.618594	-0.000000
0.010000	58.991936	1622.406006	-484.382111	0.138818	0.000000	-0.748607	0.000000	11.818166	0.000000	-62.489746	1132.147339	396.449554	0.246842	0.000000	-1.599326	0.000000	-16.168158	-0.000000
0.011000	56.970566	1616.152954	-485.991974	0.139055	0.000000	-0.745201	0.000000	11.882017	0.000000	-63.573387	1143.316284	397.738464	0.247678	0.000000	-1.599165	0.000000	-15.714524	-0.000000
0.012000	57.946709	1618.565186	-484.982971	0.138950	0.000000	-0.747070	0.000000	11.483217	0.000000	-60.794998	1142.356689	396.289734	0.247399	0.000000	-1.599237	0.000000	-15.363488	-0.000000
0.013000	57.988476	1603.808228	-486.876343	0.139685	0.000000	-0.744379	0.000000	11.026643	0.000000	-61.563477	1149.375244	396.328339	0.247511	0.000000	-1.599084	0.000000	-15.678282	-0.000000
0.014000	58.189320	1617.595215	-483.615692	0.139111	0.000000	-0.746888	0.000000	11.365325	0.000000	-62.367165	1144.110596	397.414429	0.247144	0.000000	-1.599152	0.000000	-15.745908	-0.000000
0.015000	59.118378	1604.581787	-481.073578	0.139857	0.000000	-0.746150	0.000000	10.506894	0.000000	-60.071373	1139.648682	397.092224	0.247962	0.000000	-1.599419	0.000000	-14.971953	-0.000000
0.016000	59.323784	1613.892578	-482.731384	0.139470	0.000000	-0.746764	0.000000	10.913206	0.000000	-61.885532	1139.800903	397.896576	0.247123	0.000000	-1.599963	0.000000	-15.849497	-0.000000
0.017000	59.683319	1605.877930	-483.378662	0.139634	0.000000	-0.745321	0.000000	11.026550	0.000000	-60.838341	1152.231689	397.494019	0.246826	0.000000	-1.598787	0.000000	-15.679504	-0.000000
0.018000	59.322643	1613.562622	-481.969360	0.139768	0.000000	-0.746865	0.000000	10.918408	0.000000	-60.435944	1138.370239	397.735931	0.247529	0.000000	-1.599537	0.000000	-15.459984	-0.000000
0.019000	59.483624	1611.950684	-482.049927	0.140022	0.000000	-0.746418	0.000000	10.778265	0.000000	-59.913311	1141.720337	397.534912	0.247496	0.000000	-1.599284	0.000000	-15.487045	-0.000000
